<svg width="43" height="43" viewBox="0 0 43 43" fill="none" xmlns="http://www.w3.org/2000/svg">
<defs>
<linearGradient id="paint0_linear_58_1676" x1="21.2159" y1="13.6128" x2="21.2159" y2="27.8903" gradientUnits="userSpaceOnUse">
<stop/>
<stop offset="1" stop-opacity="0"/>
</linearGradient>
</defs>
<g>
<g>
<path d="M23.5598 19.0851L18.8006 33.3627C17.8488 37.17 14.0415 36.2182 14.9933 32.4108" stroke="#C9C9C9" stroke-width="1.90367"/>
</g>
<g>
<path d="M33.0781 17.0918C33.0781 16.09 33.8903 15.2779 34.8921 15.2779H36.2525V16.6383C36.2525 17.6402 35.4404 18.4523 34.4386 18.4523V18.4523C33.6872 18.4523 33.0781 17.8432 33.0781 17.0918V17.0918Z" fill="#379ADC"/>
</g>
<g>
<path d="M31.1738 11.3808C31.1738 10.379 31.986 9.56683 32.9878 9.56683H34.3482V10.9273C34.3482 11.9291 33.5361 12.7412 32.5343 12.7412V12.7412C31.7829 12.7412 31.1738 12.1321 31.1738 11.3808V11.3808Z" fill="#379ADC"/>
</g>
<g>
<path d="M15.9072 25.0348C19.7146 24.2733 23.8392 26.6212 25.4256 27.8903C27.3292 20.2756 26.3774 14.8819 25.4256 13.6128C19.7146 16.4683 16.5418 23.1311 15.9072 25.0348Z" fill="white"/>
<path d="M15.9072 25.0348C19.7146 24.2733 23.8392 26.6212 25.4256 27.8903C27.3292 20.2756 26.3774 14.8819 25.4256 13.6128C19.7146 16.4683 16.5418 23.1311 15.9072 25.0348Z" fill="url(#paint0_linear_58_1676)" fill-opacity="0.2"/>
<g>
<path d="M25.4258 27.8903C29.9946 26.3674 33.0405 29.794 33.9923 31.6976C36.2767 20.2756 29.2331 14.8819 25.4258 13.6128C26.9487 18.1816 26.0603 25.0348 25.4258 27.8903Z" fill="#1E9B26"/>
</g>
<g>
<path d="M15.9074 25.0348C13.1333 21.0981 8.64383 21.7565 6.74814 22.7241C11.6862 12.1744 21.608 12.3754 25.4258 13.6128C21.4891 16.3869 17.0909 22.3597 15.9074 25.0348Z" fill="#1E9B26"/>
</g>
</g>
</g>
</svg>
