<svg width="43" height="27" viewBox="0 0 43 27" fill="none" xmlns="http://www.w3.org/2000/svg">
<g>
<path d="M8.84653 15.6497C8.38659 15.6497 8.01367 16.0225 8.01367 16.4825C8.01367 16.9425 8.38659 17.3154 8.84653 17.3154H28.4479C28.1645 17.8054 28.0022 18.3743 28.0022 18.9811C28.0022 20.821 29.4938 22.3125 31.3336 22.3125C33.1735 22.3125 34.665 20.821 34.665 18.9811C34.665 17.1412 33.1735 15.6497 31.3336 15.6497H8.84653Z" fill="#C01B3C"/>
<path d="M26.9663 13.0274C26.853 13.4692 27.12 13.9266 27.5745 13.9656C28.3953 14.0361 29.2254 13.9029 29.9892 13.5719C31.007 13.1309 31.8491 12.3637 32.3829 11.3912C32.9166 10.4188 33.1116 9.29639 32.9371 8.2009C32.7627 7.10542 32.2287 6.09913 31.4193 5.34059C30.6099 4.58206 29.5711 4.1144 28.4666 4.01131C27.3621 3.90823 26.2547 4.17558 25.3189 4.77123C24.3831 5.36688 23.6721 6.25698 23.2979 7.30125C23.0172 8.08486 22.938 8.92185 23.0616 9.73639C23.13 10.1874 23.6037 10.4242 24.0373 10.2825C24.4709 10.1408 24.6963 9.67238 24.6648 9.21733C24.6332 8.75915 24.696 8.29633 24.8529 7.85842C25.1034 7.15933 25.5794 6.56346 26.2059 6.1647C26.8323 5.76594 27.5737 5.58696 28.3131 5.65597C29.0525 5.72498 29.7479 6.03806 30.2898 6.54586C30.8316 7.05366 31.1891 7.72732 31.3059 8.46069C31.4227 9.19406 31.2921 9.94545 30.9348 10.5964C30.5775 11.2474 30.0138 11.7611 29.3324 12.0563C28.9056 12.2413 28.4478 12.334 27.9885 12.3321C27.5324 12.3303 27.0795 12.5855 26.9663 13.0274Z" fill="#C01B3C"/>
<path d="M11.3451 13.1511C11.3451 12.6911 11.718 12.3182 12.1779 12.3182H28.0022V13.984H12.1779C11.718 13.984 11.3451 13.6111 11.3451 13.1511Z" fill="#C01B3C"/>
<path d="M13.0108 19.8139C13.0108 19.354 13.3837 18.9811 13.8437 18.9811H22.1722C22.6322 18.9811 23.0051 19.354 23.0051 19.8139C23.0051 20.2739 22.6322 20.6468 22.1722 20.6468H13.8437C13.3837 20.6468 13.0108 20.2739 13.0108 19.8139Z" fill="#C01B3C"/>
<path d="M18.8408 10.6525C20.2207 10.6525 21.3394 9.53389 21.3394 8.15396C21.3394 6.77404 20.2207 5.6554 18.8408 5.6554C17.4609 5.6554 16.3422 6.77404 16.3422 8.15396C16.3422 8.446 16.3922 8.7263 16.4844 8.98682H8.84653C8.38659 8.98682 8.01367 9.35968 8.01367 9.81967C8.01367 10.2797 8.38659 10.6525 8.84653 10.6525H18.8408Z" fill="#C01B3C"/>
</g>
</svg>
